<svg viewBox="0 0 120 80" xmlns="http://www.w3.org/2000/svg">
  <!-- Stylized elephant wave logo inspired by 小象智能 -->
  <defs>
    <linearGradient id="g1" x1="0%" y1="0%" x2="100%" y2="100%">
      <stop offset="0%" style="stop-color:#93c5fd"/>
      <stop offset="100%" style="stop-color:#1d4ed8"/>
    </linearGradient>
  </defs>
  <!-- Left arch -->
  <path d="M8 60 L8 30 Q8 14 24 14 Q40 14 40 30 L40 44 Q40 52 48 52 L48 60 Z"
        fill="url(#g1)" opacity="0.85"/>
  <!-- Middle arch taller -->
  <path d="M44 60 L44 18 Q44 6 58 6 Q72 6 72 18 L72 44 Q72 52 80 52 L80 60 Z"
        fill="url(#g1)"/>
  <!-- Right hook -->
  <path d="M76 60 L76 26 Q76 12 90 12 Q104 12 104 26 L104 48 Q104 60 94 62 Q84 64 84 72"
        fill="none" stroke="url(#g1)" stroke-width="12" stroke-linecap="round"/>
</svg>
